<?xml version="1.0" standalone="no"?>
<!DOCTYPE svg PUBLIC "-//W3C//DTD SVG 20010904//EN"
 "http://www.w3.org/TR/2001/REC-SVG-20010904/DTD/svg10.dtd">
<svg version="1.0" xmlns="http://www.w3.org/2000/svg"
 width="1280.000000pt" height="573.000000pt" viewBox="0 0 1280.000000 573.000000"
 preserveAspectRatio="xMidYMid meet">
<metadata>
Created by potrace 1.15, written by Peter Selinger 2001-2017
</metadata>
<g transform="translate(0.000000,573.000000) scale(0.100000,-0.100000)"
fill="#000000" stroke="none">
<path d="M11235 4754 c8 -26 28 -64 45 -85 17 -22 28 -39 25 -39 -13 0 -160
-32 -164 -36 -2 -2 4 -13 14 -24 l18 -20 -5321 0 -5322 0 -2 -1272 -3 -1273
-26 -3 c-20 -2 -31 6 -56 45 -18 26 -52 68 -78 93 -38 37 -47 42 -55 30 -20
-30 -32 -96 -26 -137 l6 -43 -90 45 c-49 25 -91 45 -94 45 -2 0 0 -19 5 -42
13 -61 71 -176 114 -225 35 -41 36 -43 13 -43 -20 0 -15 -8 36 -58 33 -31 60
-66 60 -77 1 -15 8 -20 27 -20 20 1 29 -6 37 -27 8 -22 7 -28 -3 -28 -21 0
-38 -28 -31 -54 4 -18 17 -28 44 -37 l38 -11 -28 -28 c-51 -51 -28 -102 38
-82 26 8 36 8 39 -1 2 -7 9 -33 16 -60 l13 -47 46 0 c61 0 88 -9 95 -30 9 -28
36 -33 59 -11 16 14 27 17 44 10 13 -5 28 -7 33 -3 5 3 9 -1 9 -8 0 -7 18 -32
39 -55 26 -28 35 -45 29 -51 -20 -20 0 -45 32 -40 23 4 30 1 30 -13 0 -9 7
-22 15 -29 11 -10 19 -7 37 13 21 22 26 23 42 12 13 -10 23 -11 35 -3 12 7 27
6 55 -6 51 -21 63 -20 71 5 7 20 8 20 38 -9 34 -33 120 -76 174 -87 28 -6 33
-4 33 12 0 33 -20 90 -44 125 l-24 35 86 7 c47 3 88 9 91 11 3 3 -19 30 -49
60 l-54 55 5379 2 c5281 3 5381 3 5412 22 17 11 36 30 42 43 8 17 11 401 11
1288 0 1030 2 1265 13 1265 7 0 31 -18 52 -41 66 -67 134 -114 148 -100 13 13
16 111 5 153 l-8 26 95 -34 c108 -38 112 -36 70 47 -36 72 -78 130 -124 172
-35 32 -38 37 -20 37 19 0 20 2 8 17 -8 9 -38 31 -66 50 -35 22 -53 40 -53 53
0 15 -7 20 -24 20 -14 0 -28 -6 -33 -12 -5 -9 -9 -3 -13 17 -4 23 -11 30 -28
29 -34 -1 -26 14 9 18 64 6 64 63 1 83 -36 10 -38 16 -16 50 22 34 15 69 -16
73 -51 6 -70 13 -96 37 -15 14 -35 25 -45 25 -10 0 -21 5 -24 10 -10 17 -32
11 -64 -15 l-30 -26 -3 37 c-6 71 -68 69 -68 -3 l0 -34 -26 20 c-15 12 -32 21
-39 21 -7 0 -16 12 -19 26 -5 18 -21 32 -55 48 -39 18 -45 24 -34 34 7 7 13
20 13 28 0 23 -29 28 -49 10 -17 -16 -19 -15 -24 14 -8 39 -44 42 -53 4 -5
-18 -10 -22 -17 -15 -14 14 -54 14 -59 1 -2 -6 -22 -4 -52 5 -65 20 -66 19
-66 -12 0 -24 -1 -25 -17 -11 -42 37 -160 78 -223 78 -18 0 -18 -3 -5 -46z"/>
</g>
</svg>
